<svg xmlns="http://www.w3.org/2000/svg" xmlns:xlink="http://www.w3.org/1999/xlink" width="64.486" height="64.486" viewBox="0 0 64.486 64.486">
  <defs>
    <clipPath id="clip-path">
      <circle id="Ellipse_11" data-name="Ellipse 11" cx="22.799" cy="22.799" r="22.799" transform="translate(6088.958 2827.201) rotate(-45)" fill="none"/>
    </clipPath>
  </defs>
  <g id="Group_29" data-name="Group 29" transform="translate(-6088.958 -2794.958)" clip-path="url(#clip-path)">
    <g id="Group_28" data-name="Group 28">
      <path id="Path_45" data-name="Path 45" d="M6115.555,2834.768s-.852.131-2.392-1.933a12.361,12.361,0,0,1-1.835-10.912c1.321-4.7,2.844-8.335,4.919-8.123a1.835,1.835,0,0,1,.422.095,12.076,12.076,0,0,1,4.983,3.559C6122.207,2818.253,6115.555,2834.768,6115.555,2834.768Z" fill="#3a3b39" fill-rule="evenodd"/>
      <g id="Group_27" data-name="Group 27">
        <path id="Path_46" data-name="Path 46" d="M6117.138,2836.752l.422,1.894c.429,1.923.4,2.045-1.205,2.874-2.609,1.347-7.116,2.113-8.669,4.613-.564.908-.609,2.03-.609,3.862h28.244c0-1.832-.045-2.954-.608-3.862-1.553-2.5-6.06-3.266-8.669-4.613-1.606-.829-1.635-.951-1.206-2.874l.422-1.894C6119.9,2833.917,6122.5,2833.917,6117.138,2836.752Z" fill="#fec49c" fill-rule="evenodd"/>
        <path id="Path_47" data-name="Path 47" d="M6126.909,2841.922a5.014,5.014,0,0,1-2.949,1.423c-1.551.017-5.068-2.462-6.516-5.221l-.531-2.241,5.439-2.326,3.8,2.228-.894.967-.645,3.088s-.237.828.908,1.4S6126.909,2841.922,6126.909,2841.922Z" fill="#d2a487" fill-rule="evenodd"/>
        <g id="Group_26" data-name="Group 26">
          <path id="Path_48" data-name="Path 48" d="M6113.9,2825.014c-.15,0-1.246-1.358-1.98-.355s.472,6.156,2.17,6.052A8.72,8.72,0,0,0,6113.9,2825.014Z" fill="#fec49c" fill-rule="evenodd"/>
          <path id="Path_49" data-name="Path 49" d="M6128.463,2825.014c.151,0,1.246-1.358,1.98-.355s-.472,6.156-2.17,6.052A8.722,8.722,0,0,1,6128.463,2825.014Z" fill="#fec49c" fill-rule="evenodd"/>
          <path id="Path_50" data-name="Path 50" d="M6116.576,2836.644c3.618,3.917,5.623,3.917,9.24,0,2.842-3.077,2.507-6.355,2.663-10.361a12.453,12.453,0,0,0-.582-4.74c-2.059-5.49-11.343-5.49-13.4,0a12.472,12.472,0,0,0-.583,4.74C6114.07,2830.289,6113.735,2833.567,6116.576,2836.644Z" fill="#fec49c" fill-rule="evenodd"/>
        </g>
      </g>
      <path id="Path_51" data-name="Path 51" d="M6126.4,2835.976c5.827-5.487,7.877-13.143,3.6-20.041a8.751,8.751,0,0,0-11.292-3.509,12.177,12.177,0,0,0-2.241,1.409s7.385,4.582,9.089,8.645S6127.487,2830.366,6126.4,2835.976Z" fill="#353634" fill-rule="evenodd"/>
      <path id="Path_52" data-name="Path 52" d="M6113.964,2842.52c-2.4.882-5.135,1.782-6.275,3.617-.564.908-.609,2.031-.609,3.863h11.874l-2.689-3.116-2.2-4-.106-.367Zm9.746,7.48h11.614c0-1.832-.044-2.955-.608-3.863-1.088-1.751-3.626-2.651-5.946-3.5l-4.181,6.242Z" fill="#c4495e" fill-rule="evenodd"/>
      <path id="Path_53" data-name="Path 53" d="M6114.192,2842.436s3.073,6.2,5.44,7.564h-1.355a40.138,40.138,0,0,1-4.951-7.267Z" fill="#a64358" fill-rule="evenodd"/>
      <path id="Path_54" data-name="Path 54" d="M6128.22,2842.436s-3.073,6.2-5.44,7.564h1.355a40.127,40.127,0,0,0,4.951-7.267Z" fill="#a64358" fill-rule="evenodd"/>
    </g>
  </g>
</svg>
