<svg xmlns="http://www.w3.org/2000/svg" xmlns:xlink="http://www.w3.org/1999/xlink" width="64.486" height="64.486" viewBox="0 0 64.486 64.486">
  <defs>
    <clipPath id="clip-path">
      <circle id="Ellipse_72" data-name="Ellipse 72" cx="22.799" cy="22.799" r="22.799" transform="translate(2385.958 3825.201) rotate(-45)" fill="none"/>
    </clipPath>
  </defs>
  <g id="Group_183" data-name="Group 183" transform="translate(-2385.958 -3792.958)">
    <g id="Group_182" data-name="Group 182" clip-path="url(#clip-path)">
      <g id="Group_181" data-name="Group 181">
        <path id="Path_277" data-name="Path 277" d="M2412.555,3832.768s-.852.131-2.392-1.933a12.361,12.361,0,0,1-1.835-10.912c1.321-4.7,2.844-8.335,4.919-8.123a1.832,1.832,0,0,1,.422.095,12.08,12.08,0,0,1,4.983,3.559C2419.207,3816.253,2412.555,3832.768,2412.555,3832.768Z" fill="#3a3b39" fill-rule="evenodd"/>
        <g id="Group_180" data-name="Group 180">
          <path id="Path_278" data-name="Path 278" d="M2414.138,3834.752l.422,1.894c.429,1.923.4,2.045-1.205,2.874-2.609,1.347-7.116,2.113-8.669,4.613-.564.908-.609,2.03-.609,3.862h28.244c0-1.832-.045-2.954-.608-3.862-1.553-2.5-6.06-3.266-8.669-4.613-1.606-.829-1.635-.951-1.206-2.874l.422-1.894C2416.9,3831.917,2419.5,3831.917,2414.138,3834.752Z" fill="#fec49c" fill-rule="evenodd"/>
          <path id="Path_279" data-name="Path 279" d="M2423.909,3839.922a5.012,5.012,0,0,1-2.949,1.423c-1.551.017-5.068-2.462-6.516-5.221l-.531-2.241,5.439-2.326,3.8,2.228-.894.967-.645,3.088s-.237.828.908,1.4S2423.909,3839.922,2423.909,3839.922Z" fill="#d2a487" fill-rule="evenodd"/>
          <g id="Group_179" data-name="Group 179">
            <path id="Path_280" data-name="Path 280" d="M2410.9,3823.014c-.15,0-1.246-1.358-1.98-.355s.472,6.156,2.17,6.052A8.72,8.72,0,0,0,2410.9,3823.014Z" fill="#fec49c" fill-rule="evenodd"/>
            <path id="Path_281" data-name="Path 281" d="M2425.463,3823.014c.151,0,1.246-1.358,1.98-.355s-.472,6.156-2.17,6.052A8.722,8.722,0,0,1,2425.463,3823.014Z" fill="#fec49c" fill-rule="evenodd"/>
            <path id="Path_282" data-name="Path 282" d="M2413.576,3834.644c3.618,3.917,5.623,3.917,9.24,0,2.842-3.077,2.507-6.355,2.663-10.361a12.448,12.448,0,0,0-.582-4.74c-2.059-5.49-11.343-5.49-13.4,0a12.462,12.462,0,0,0-.583,4.74C2411.07,3828.289,2410.735,3831.567,2413.576,3834.644Z" fill="#fec49c" fill-rule="evenodd"/>
          </g>
        </g>
        <path id="Path_283" data-name="Path 283" d="M2423.4,3833.976c5.827-5.487,7.877-13.143,3.6-20.041a8.751,8.751,0,0,0-11.292-3.509,12.176,12.176,0,0,0-2.241,1.409s7.385,4.582,9.089,8.645S2424.487,3828.366,2423.4,3833.976Z" fill="#353634" fill-rule="evenodd"/>
        <path id="Path_284" data-name="Path 284" d="M2410.964,3840.52c-2.4.882-5.135,1.782-6.275,3.617-.564.908-.609,2.031-.609,3.863h11.874l-2.689-3.116-2.195-4-.106-.367Zm9.746,7.48h11.614c0-1.832-.044-2.955-.608-3.863-1.088-1.751-3.626-2.651-5.946-3.5l-4.181,6.242Z" fill="#c4495e" fill-rule="evenodd"/>
        <path id="Path_285" data-name="Path 285" d="M2411.192,3840.436s3.073,6.2,5.44,7.564h-1.355a40.141,40.141,0,0,1-4.951-7.267Z" fill="#a64358" fill-rule="evenodd"/>
        <path id="Path_286" data-name="Path 286" d="M2425.22,3840.436s-3.073,6.2-5.44,7.564h1.355a40.147,40.147,0,0,0,4.951-7.267Z" fill="#a64358" fill-rule="evenodd"/>
      </g>
    </g>
  </g>
</svg>
