<svg xmlns="http://www.w3.org/2000/svg" width="38.419" height="40" viewBox="0 0 38.419 40">
  <g id="Group_338" data-name="Group 338" transform="translate(-1541.581 -28)">
    <path id="Path_516" data-name="Path 516" d="M1580,64.754l-4.2-9.073h-30.012l-4.2,9.073h15.429a2.173,2.173,0,0,0-.057.442c0,1.549,1.544,2.8,3.446,2.8s3.447-1.255,3.447-2.8a2.407,2.407,0,0,0-.053-.442Z" fill="#a0a0a0"/>
    <path id="Path_517" data-name="Path 517" d="M1563.742,33.915c0-.045.007-.094.007-.138,0-2.872-1.149-5.777-3.35-5.777s-3.348,2.905-3.348,5.777c0,.044.008.093.008.138-5.423,2.246-9.634,9.807-10.652,19.305h27.986C1573.375,43.722,1569.164,36.161,1563.742,33.915Zm-3.343-.7a8.324,8.324,0,0,0-1.546.158c.1-2.543,1.116-3.924,1.546-3.924s1.446,1.381,1.549,3.924A8.347,8.347,0,0,0,1560.4,33.216Z" fill="#a0a0a0"/>
  </g>
</svg>
