<svg xmlns="http://www.w3.org/2000/svg" width="35.858" height="26.179" viewBox="0 0 35.858 26.179">
  <g id="Group_337" data-name="Group 337" transform="translate(-1610.142 -38.769)">
    <g id="Group_336" data-name="Group 336">
      <path id="Path_512" data-name="Path 512" d="M1610.142,44.285V62.014l10.658-8.866Z" fill="#a0a0a0"/>
      <path id="Path_513" data-name="Path 513" d="M1643.17,38.769h-30.2a2.84,2.84,0,0,0-2.789,2.35l14.089,11.716,2.348,1.953a2.361,2.361,0,0,0,2.9,0l2.468-2.052,13.969-11.617A2.84,2.84,0,0,0,1643.17,38.769Z" fill="#a0a0a0"/>
      <path id="Path_514" data-name="Path 514" d="M1646,62.014V44.285l-10.658,8.862Z" fill="#a0a0a0"/>
      <path id="Path_515" data-name="Path 515" d="M1631.428,56.4l-1.907,1.587a2.364,2.364,0,0,1-2.9,0l-2.46-2.046-1.437-1.195-11.517,9.576a2.817,2.817,0,0,0,1.766.624h30.2a2.812,2.812,0,0,0,1.764-.624l-11.517-9.576Z" fill="#a0a0a0"/>
    </g>
  </g>
</svg>
