<svg xmlns="http://www.w3.org/2000/svg" width="24" height="33.951" viewBox="0 0 24 33.951">
  <g id="Group_262" data-name="Group 262" transform="translate(-1756 -2851.484)">
    <path id="Path_403" data-name="Path 403" d="M1776.266,2862.316h-1.779c.382-.365.671-.647.772-.757a5.918,5.918,0,0,0,.087-7.818c-.122-.138-.248-.272-.377-.4a6.309,6.309,0,0,0-4.145-1.847,6.482,6.482,0,0,0-4.432,1.394c-.417.344-3.828,3.669-4.126,3.949l1.863,1.833.19-.184c1.122-1.087,4.129-3.988,5.185-4.249a3.667,3.667,0,0,1,3.429.817c.033.03.064.06.095.09a3.334,3.334,0,0,1,.894,3.3c-.211.8-1.842,2.521-3.233,3.871h-10.955a3.667,3.667,0,0,0-3.734,3.6v15.927a3.667,3.667,0,0,0,3.734,3.6h16.532a3.667,3.667,0,0,0,3.734-3.6v-15.927A3.667,3.667,0,0,0,1776.266,2862.316Z" fill="#a0a0a0"/>
    <path id="Path_404" data-name="Path 404" d="M1766.63,2877.523a.48.48,0,0,1-.477-.538l.387-3.136a2.017,2.017,0,0,1-.638-1.463,2.1,2.1,0,0,1,4.2,0,2.021,2.021,0,0,1-.637,1.463l.386,3.136a.48.48,0,0,1-.476.538Z" fill="#fff" fill-rule="evenodd"/>
  </g>
</svg>
