<svg xmlns="http://www.w3.org/2000/svg" width="23.564" height="32.113" viewBox="0 0 23.564 32.113">
  <g id="Group_258" data-name="Group 258" transform="translate(-1440.436 -2853.782)">
    <path id="Path_401" data-name="Path 401" d="M1460.334,2863.2h-1.918c.02-1.5.044-3.528.02-3.9a6.088,6.088,0,0,0-5.574-5.485c-.185-.015-.369-.024-.549-.025a6.234,6.234,0,0,0-4.209,1.489,5.913,5.913,0,0,0-2.072,3.933c-.028.343-.024,2.477-.021,3.991H1444.1a3.6,3.6,0,0,0-3.666,3.531v15.637a3.6,3.6,0,0,0,3.666,3.531h16.232a3.6,3.6,0,0,0,3.666-3.531v-15.637A3.6,3.6,0,0,0,1460.334,2863.2Zm-11.17-5.136a3.526,3.526,0,0,1,2.97-1.726h.131a3.508,3.508,0,0,1,3,1.693c.458.739.549,3.253.546,5.17h-7.179C1448.647,2861.37,1448.738,2858.755,1449.164,2858.06Z" fill="#a0a0a0"/>
    <path id="Path_402" data-name="Path 402" d="M1451.1,2878.127a.47.47,0,0,1-.467-.529l.379-3.078a1.985,1.985,0,0,1-.626-1.437,2.06,2.06,0,0,1,4.119,0,1.98,1.98,0,0,1-.625,1.436l.379,3.079a.472.472,0,0,1-.468.529Z" fill="#fff" fill-rule="evenodd"/>
  </g>
</svg>
