<svg xmlns="http://www.w3.org/2000/svg" xmlns:xlink="http://www.w3.org/1999/xlink" width="278.032" height="278.032" viewBox="0 0 278.032 278.032">
  <defs>
    <clipPath id="clip-path">
      <circle id="Ellipse_43" data-name="Ellipse 43" cx="98.299" cy="98.299" r="98.299" transform="translate(2970.685 3809.701) rotate(-45)" fill="none"/>
    </clipPath>
  </defs>
  <g id="Group_117" data-name="Group 117" transform="translate(-2970.685 -3670.685)">
    <g id="Group_116" data-name="Group 116" clip-path="url(#clip-path)">
      <g id="Group_115" data-name="Group 115">
        <path id="Path_185" data-name="Path 185" d="M3085.36,3842.327s-3.673.565-10.314-8.336-13.987-25.43-7.911-47.046c5.7-20.266,12.26-35.936,21.207-35.022a8.149,8.149,0,0,1,1.821.408c9.89,3.39,19.093,11.906,21.485,15.348S3085.36,3842.327,3085.36,3842.327Z" fill="#3a3b39" fill-rule="evenodd"/>
        <g id="Group_114" data-name="Group 114">
          <path id="Path_186" data-name="Path 186" d="M3092.184,3850.882l1.821,8.163c1.849,8.292,1.722,8.817-5.2,12.392-11.249,5.811-30.681,9.11-37.377,19.889-2.43,3.914-2.624,8.755-2.624,16.653h121.775c0-7.9-.193-12.739-2.624-16.653-6.7-10.779-26.127-14.078-37.376-19.889-6.921-3.575-7.047-4.1-5.2-12.392l1.82-8.163C3104.071,3838.659,3115.317,3838.659,3092.184,3850.882Z" fill="#fec49c" fill-rule="evenodd"/>
          <path id="Path_187" data-name="Path 187" d="M3134.311,3873.17s-6.032,6.067-12.716,6.138-21.847-10.616-28.092-22.511l-2.289-9.662,23.452-10.031,16.389,9.608-3.852,4.17-2.784,13.312s-1.02,3.569,3.916,6.047S3134.311,3873.17,3134.311,3873.17Z" fill="#d2a487" fill-rule="evenodd"/>
          <g id="Group_113" data-name="Group 113">
            <path id="Path_188" data-name="Path 188" d="M3078.243,3800.271c-.65-.016-5.373-5.854-8.539-1.527s2.037,26.539,9.356,26.093A37.6,37.6,0,0,0,3078.243,3800.271Z" fill="#fec49c" fill-rule="evenodd"/>
            <path id="Path_189" data-name="Path 189" d="M3141.011,3800.271c.65-.016,5.372-5.854,8.539-1.527s-2.037,26.539-9.356,26.093A37.6,37.6,0,0,1,3141.011,3800.271Z" fill="#fec49c" fill-rule="evenodd"/>
            <path id="Path_190" data-name="Path 190" d="M3089.763,3850.414c15.6,16.891,24.241,16.891,39.839,0,12.249-13.267,10.8-27.4,11.48-44.67.293-7.476-.336-14.631-2.512-20.436-8.874-23.671-48.9-23.671-57.776,0-2.176,5.8-2.8,12.96-2.513,20.436C3078.957,3823.016,3077.513,3837.147,3089.763,3850.414Z" fill="#fec49c" fill-rule="evenodd"/>
          </g>
        </g>
        <path id="Path_191" data-name="Path 191" d="M3132.1,3847.534c25.121-23.656,33.959-56.663,15.517-86.406-10.453-16.856-30.84-23.651-48.689-15.127a52.58,52.58,0,0,0-9.661,6.074s31.84,19.753,39.187,37.271S3136.8,3823.346,3132.1,3847.534Z" fill="#353634" fill-rule="evenodd"/>
        <path id="Path_192" data-name="Path 192" d="M3078.5,3875.75c-10.366,3.8-22.142,7.685-27.056,15.6-2.431,3.914-2.624,8.755-2.624,16.653h51.194l-11.593-13.434-9.466-17.236-.455-1.58Zm42.018,32.25h50.076c0-7.9-.193-12.739-2.624-16.653-4.691-7.552-15.633-11.432-25.633-15.077l-18.031,26.915Z" fill="#c4495e" fill-rule="evenodd"/>
        <path id="Path_193" data-name="Path 193" d="M3079.482,3875.388s13.251,26.725,23.453,32.612h-5.84s-13.045-14.863-21.346-31.331Z" fill="#a64358" fill-rule="evenodd"/>
        <path id="Path_194" data-name="Path 194" d="M3139.965,3875.388s-13.251,26.725-23.454,32.612h5.84s13.046-14.863,21.347-31.331Z" fill="#a64358" fill-rule="evenodd"/>
      </g>
    </g>
  </g>
</svg>
