<svg xmlns="http://www.w3.org/2000/svg" width="52" height="52" viewBox="0 0 52 52">
  <g id="Group_119" data-name="Group 119" transform="translate(-3850 -3607)">
    <circle id="Ellipse_44" data-name="Ellipse 44" cx="26" cy="26" r="26" transform="translate(3850 3607)" fill="#fafdff"/>
    <path id="Path_195" data-name="Path 195" d="M3888.653,3620.246a5.12,5.12,0,0,0-3.127-1.517,3.712,3.712,0,0,0-2.724.783l-1.926,1.847-13.433,13.315-5.17,11.922,11.747-4.992,14.071-14.183,1.283-1.312C3890.674,3624.535,3890.385,3621.979,3888.653,3620.246Zm-6.992,1.3,1.313.321-13.336,13.339-1.313-.322Zm-14.012,22.009a5.2,5.2,0,0,0-2.3-2.318l2.5-5.757,1.722.42,3.3,3.3.368,1.977Zm5.786-4.767-3.2-3.2,13.421-13.421,3.138,3.138.027.1Zm15.7-13.569-.113-.412a5.3,5.3,0,0,0-1.165-2l-1.884-1.884a4.954,4.954,0,0,0-1.993-1.13l-.242-.058a3.131,3.131,0,0,1,1.73-.323,4.421,4.421,0,0,1,2.7,1.318A3.907,3.907,0,0,1,3889.131,3625.224Z" fill="#8b8b8c"/>
  </g>
</svg>
