<svg xmlns="http://www.w3.org/2000/svg" xmlns:xlink="http://www.w3.org/1999/xlink" width="29.089" height="29.089" viewBox="0 0 29.089 29.089">
  <defs>
    <clipPath id="clip-path">
      <circle id="Ellipse_17" data-name="Ellipse 17" cx="14.545" cy="14.545" r="14.545" transform="translate(5225.401 2850.401)" fill="none"/>
    </clipPath>
  </defs>
  <g id="Group_50" data-name="Group 50" transform="translate(-5225.401 -2850.401)">
    <g id="Group_49" data-name="Group 49" clip-path="url(#clip-path)">
      <g id="Group_48" data-name="Group 48">
        <path id="Path_77" data-name="Path 77" d="M5236.344,2869.773s-.543.084-1.526-1.233a7.887,7.887,0,0,1-1.17-6.961c.843-3,1.814-5.317,3.138-5.182a1.227,1.227,0,0,1,.269.06,7.719,7.719,0,0,1,3.179,2.271C5240.588,2859.238,5236.344,2869.773,5236.344,2869.773Z" fill="#3a3b39" fill-rule="evenodd"/>
        <g id="Group_47" data-name="Group 47">
          <path id="Path_78" data-name="Path 78" d="M5237.354,2871.039l.27,1.208c.273,1.227.254,1.3-.769,1.834-1.665.859-4.54,1.347-5.531,2.942a4.618,4.618,0,0,0-.388,2.464h18.018a4.623,4.623,0,0,0-.388-2.464c-.991-1.595-3.866-2.083-5.531-2.942-1.024-.529-1.042-.607-.769-1.834l.27-1.208C5239.113,2869.231,5240.777,2869.231,5237.354,2871.039Z" fill="#fec49c" fill-rule="evenodd"/>
          <path id="Path_79" data-name="Path 79" d="M5243.587,2874.337a3.2,3.2,0,0,1-1.881.908c-.989.011-3.233-1.571-4.157-3.331l-.338-1.429,3.47-1.484,2.425,1.421-.57.617-.412,1.97s-.151.528.579.9S5243.587,2874.337,5243.587,2874.337Z" fill="#d2a487" fill-rule="evenodd"/>
          <g id="Group_46" data-name="Group 46">
            <path id="Path_80" data-name="Path 80" d="M5235.291,2863.551c-.1,0-.795-.866-1.263-.226s.3,3.927,1.384,3.861A5.562,5.562,0,0,0,5235.291,2863.551Z" fill="#fec49c" fill-rule="evenodd"/>
            <path id="Path_81" data-name="Path 81" d="M5244.579,2863.551c.1,0,.795-.866,1.263-.226s-.3,3.927-1.384,3.861A5.562,5.562,0,0,1,5244.579,2863.551Z" fill="#fec49c" fill-rule="evenodd"/>
            <path id="Path_82" data-name="Path 82" d="M5237,2870.97c2.308,2.5,3.587,2.5,5.9,0,1.812-1.963,1.6-4.054,1.7-6.609a7.915,7.915,0,0,0-.371-3.024c-1.313-3.5-7.236-3.5-8.549,0a7.943,7.943,0,0,0-.372,3.024C5235.4,2866.916,5235.183,2869.007,5237,2870.97Z" fill="#fec49c" fill-rule="evenodd"/>
          </g>
        </g>
        <path id="Path_83" data-name="Path 83" d="M5243.26,2870.544c3.717-3.5,5.024-8.384,2.3-12.785a5.584,5.584,0,0,0-7.2-2.238,7.773,7.773,0,0,0-1.43.9s4.711,2.922,5.8,5.514S5243.956,2866.965,5243.26,2870.544Z" fill="#353634" fill-rule="evenodd"/>
        <path id="Path_84" data-name="Path 84" d="M5235.33,2874.719c-1.534.562-3.276,1.137-4,2.307a4.62,4.62,0,0,0-.388,2.465h7.575l-1.715-1.988-1.4-2.55-.067-.234Zm6.217,4.772h7.409a4.625,4.625,0,0,0-.388-2.465c-.694-1.117-2.313-1.691-3.793-2.23l-2.668,3.982Z" fill="#c4495e" fill-rule="evenodd"/>
        <path id="Path_85" data-name="Path 85" d="M5235.475,2874.665s1.96,3.954,3.47,4.826h-.864a25.688,25.688,0,0,1-3.159-4.636Z" fill="#a64358" fill-rule="evenodd"/>
        <path id="Path_86" data-name="Path 86" d="M5244.424,2874.665s-1.961,3.954-3.47,4.826h.864a25.654,25.654,0,0,0,3.158-4.636Z" fill="#a64358" fill-rule="evenodd"/>
      </g>
    </g>
  </g>
</svg>
